<?xml version="1.0" encoding="utf-8"?>
<!-- Generator: Adobe Illustrator 27.7.0, SVG Export Plug-In . SVG Version: 6.00 Build 0)  -->
<svg version="1.1" id="Layer_1" xmlns="http://www.w3.org/2000/svg" xmlns:xlink="http://www.w3.org/1999/xlink" x="0px" y="0px"
	 viewBox="0 0 572.61 254.12" style="enable-background:new 0 0 572.61 254.12;" xml:space="preserve">
<style type="text/css">
	.st0{fill:#151515;}
</style>
<path class="st0" d="M63.17,100.13h-9.65v9.96h9.65v32.65c0,8.99,4.51,13.36,13.78,13.36h11.02v-9.96h-8.59
	c-3.45,0-4.45-0.97-4.45-4.34V110.1H88.4v-9.96H74.93V88.05L63.17,100.13z"/>
<path class="st0" d="M122.21,99.07c-6.19,0-11.34,2.61-14.73,7.33V80H96.03v76.11h11.76v-35.19c0-5.27,1.88-11.55,10.81-11.55
	c7.3,0,10.71,3.94,10.71,12.4v34.34h11.77v-37.42C141.08,106.96,133.5,99.07,122.21,99.07z"/>
<polygon class="st0" points="150.86,156.1 162.63,156.1 162.63,110.1 169.98,110.1 178.53,110.1 178.53,100.13 150.86,100.13 "/>
<path class="st0" d="M206.62,99.07c-12.77,0-25.65,8.98-25.65,29.04c0,17.1,10.72,29.04,26.08,29.04c12.99,0,21.6-6.74,24.24-18.98
	l0.39-1.8H219.9l-0.3,1.1c-1.12,4.17-3.55,9.71-11.71,9.71c-8.43,0-14.06-5.68-14.95-14.95h38.9l0.11-1.37
	c0.77-9.92-1.74-18.55-7.07-24.31C220.34,101.67,214.03,99.07,206.62,99.07z M206.62,109.04c7.49,0,12.35,4.8,13.51,13.25h-27.1
	C194.28,113.84,199.17,109.04,206.62,109.04z"/>
<path class="st0" d="M264.4,99.07c-12.77,0-25.65,8.98-25.65,29.04c0,17.1,10.72,29.04,26.08,29.04c12.99,0,21.6-6.74,24.24-18.98
	l0.39-1.8h-11.77l-0.3,1.1c-1.12,4.17-3.55,9.71-11.71,9.71c-8.43,0-14.06-5.68-14.95-14.95h38.9l0.11-1.37
	c0.77-9.92-1.74-18.55-7.07-24.31C278.12,101.67,271.8,99.07,264.4,99.07z M264.4,109.04c7.49,0,12.35,4.8,13.51,13.25h-27.1
	C252.06,113.84,256.95,109.04,264.4,109.04z"/>
<path class="st0" d="M325.99,122.64l-7.1-1.59c-8.47-1.92-9.97-3.29-9.97-6.18c0-4.03,4.84-5.83,9.65-5.83
	c6.45,0,10.36,3,11.03,8.45l0.16,1.3h11.7l-0.1-1.58c-0.34-5.27-2.71-9.66-7.01-13.03c-4.23-3.43-9.39-5.1-15.77-5.1
	c-5.95,0-11,1.57-15,4.65c-4.11,3.17-6.2,7.2-6.2,11.99c0,8.6,5.72,14.03,17.48,16.61l7.1,1.59c7.94,1.78,9.02,4.45,9.02,6.82
	c0,4.24-5.49,6.47-10.92,6.47c-6.88,0-12.03-4.62-12.51-11.24l-0.1-1.38H295.7l0.08,1.56c0.56,10.44,8.96,21.02,23.95,21.02
	c13.78,0,22.68-6.66,22.68-16.96C342.42,130.93,336.89,125.02,325.99,122.64z"/>
<rect x="351.32" y="80" class="st0" width="13.25" height="13.25"/>
<rect x="352.07" y="100.13" class="st0" width="11.76" height="55.97"/>
<polygon class="st0" points="422.57,100.13 409.06,100.13 396.9,117.48 384.64,100.13 371.13,100.13 389.68,126.21 368.49,156.1 
	381.99,156.1 396.9,134.94 411.71,156.1 425.22,156.1 404.02,126.21 "/>
<path class="st0" d="M433.58,100.13h-9.65v9.96h9.65v32.65c0,8.99,4.51,13.36,13.78,13.36h11.02v-9.96h-8.59
	c-3.45,0-4.45-0.97-4.45-4.34V110.1h13.46v-9.96h-13.46V88.05L433.58,100.13z"/>
<polygon class="st0" points="503.98,100.13 488.16,144.32 472.04,100.13 459.77,100.13 478.23,150.8 485.85,150.8 477.48,174.12 
	489.75,174.12 516.25,100.13 "/>
</svg>
